<?xml version="1.0" encoding="UTF-8"?>
<svg width="36px" height="36px" viewBox="0 0 36 36" version="1.1" xmlns="http://www.w3.org/2000/svg" xmlns:xlink="http://www.w3.org/1999/xlink">
    <title>button_pink_sel</title>
    <g id="产业规划" stroke="none" stroke-width="1" fill="none" fill-rule="evenodd">
        <g id="Apple-TV" transform="translate(-488.000000, -469.000000)">
            <g id="编组-12" transform="translate(30.000000, 29.000000)">
                <g id="button_pink_sel" transform="translate(458.000000, 440.000000)">
                    <rect id="矩形" stroke-opacity="0.24" stroke="#D9E9FF" fill-opacity="0.6" fill="#272B30" x="0.5" y="0.5" width="35" height="35" rx="6"></rect>
                    <path d="M25,9 L11,9 C9.9,9 9.01,9.9 9.01,11 L9,25 C9,26.1 9.9,27 11,27 L25,27 C26.1,27 27,26.1 27,25 L27,11 C27,9.9 26.1,9 25,9 Z M24,20 L20,20 L20,24 L16,24 L16,20 L12,20 L12,16 L16,16 L16,12 L20,12 L20,16 L24,16 L24,20 Z" id="icon/maps/local_hospital_24px" fill="#FF9F99" fill-rule="nonzero"></path>
                </g>
            </g>
        </g>
    </g>
</svg>